# xmcd CD database file
#
# Track frame offsets:
#	150
#	21825
#	48692
#	66585
#	85127
#	103757
#	139070
#	156982
#	177937
#	198682
#	223534
#	244020
#
# Disc length: 3499 seconds
#
# Revision: 5
# Processed by: cddbd v1.5.2PL0 Copyright (c) Steve Scherf et al.
# Submitted via: CDex 1.70beta3
#
DISCID=b40da90c
DTITLE=Judas Priest - Ram It Down
DYEAR=1988
DGENRE=Heavy Metal
TTITLE0=Ram It Down
TTITLE1=Heavy Metal
TTITLE2=Love Zone
TTITLE3=Come And Get It
TTITLE4=Hard As Iron
TTITLE5=Blood Red Skies
TTITLE6=I'm A Rocker
TTITLE7=Johnny B Goode
TTITLE8=Love You To Death
TTITLE9=Monsters Of Rock
TTITLE10=Night Comes Down (Bonus Tracks Live)
TTITLE11=Bloodstone (Bonus Tracks Live)
EXTD=YEAR: 1988
EXTT0=
EXTT1=
EXTT2=
EXTT3=
EXTT4=
EXTT5=
EXTT6=
EXTT7=
EXTT8=
EXTT9=
EXTT10=
EXTT11=
PLAYORDER=
